<?xml version="1.0" encoding="UTF-8"?>
<svg id="Layer_1" data-name="Layer 1" xmlns="http://www.w3.org/2000/svg" xmlns:xlink="http://www.w3.org/1999/xlink" viewBox="0 0 79.23 97.3">
  <defs>
    <style>
      .cls-1 {
        fill: none;
      }

      .cls-2 {
        fill: #fff;
      }

      .cls-3 {
        fill: #001aff;
      }

      .cls-4 {
        clip-path: url(#clippath);
      }
    </style>
    <clipPath id="clippath">
      <rect class="cls-1" y="0" width="79.23" height="97.3"/>
    </clipPath>
  </defs>
  <polygon class="cls-2" points="0 39.91 9.4 45.3 10.72 43.01 7.14 40.95 8.7 38.22 6.6 37.01 5.03 39.74 3.43 38.82 5.05 35.99 2.94 34.78 0 39.91"/>
  <rect class="cls-2" x="7.65" y="29.63" width="2.77" height="10.84" transform="translate(-25.86 25.44) rotate(-60.15)"/>
  <polygon class="cls-2" points="8.6 29.8 7.54 31.65 5.43 30.44 8.93 24.35 11.04 25.56 9.98 27.4 17.27 31.58 15.9 33.98 8.6 29.8"/>
  <g class="cls-4">
    <path class="cls-2" d="M16.59,17.35c-.35-.13-.99-.4-1.41.34-.24.42-.18.99.26,1.25.56.32.82.13,2.55-1.12,1.79-1.3,2.86-1.28,3.95-.65,1.37.79,2.43,2.44,1,4.93-1.56,2.72-3.72,2.37-4.93,1.68l-.3-.17,1.37-2.39c1.09.63,1.67.06,1.84-.24.33-.57.06-1.18-.38-1.43-.62-.36-1-.05-2.44,1.05-.65.51-2.25,1.77-4.01.75-1.77-1.01-1.79-3.3-.88-4.88.53-.93,1.45-1.73,2.52-1.93,1.01-.17,1.66.16,2.21.44l-1.36,2.38Z"/>
  </g>
  <rect class="cls-2" x="19.96" y="8.18" width="2.77" height="10.84" transform="translate(-1.07 25.34) rotate(-60.15)"/>
  <polygon class="cls-2" points="22.9 0 21.35 2.71 23.13 5.81 19.53 5.88 17.97 8.6 24.03 8.21 27.15 14.37 28.68 11.69 26.46 7.85 30.96 7.73 32.52 5.01 25.7 5.42 22.9 0"/>
  <g>
    <path class="cls-3" d="M72.73,41.58c-4.16-5.86-9.9-10.26-16.61-12.73l-.93,2.52c6.2,2.28,11.51,6.35,15.35,11.76,3.93,5.53,6,12.05,6,18.86,0,17.99-14.64,32.63-32.63,32.63S11.3,79.98,11.3,61.99c0-5.71,1.49-11.32,4.32-16.24l-1.12-.64,1.12.64L38.75,5.43h-3.09L13.29,44.42h0c-3.06,5.32-4.68,11.4-4.68,17.57,0,19.47,15.84,35.31,35.31,35.31s35.31-15.84,35.31-35.31c0-7.37-2.25-14.43-6.5-20.42M23.19,50.46s0,0,0,0h0c-2.06,3.59-3.15,7.69-3.15,11.85,0,13.13,10.69,23.82,23.82,23.82s23.82-10.69,23.82-23.82c0-5.18-1.64-10.11-4.73-14.25-2.99-4-7.26-7.02-12-8.5l-.8,2.56c4.21,1.31,8,3.99,10.65,7.54,2.75,3.67,4.2,8.05,4.2,12.65,0,11.65-9.48,21.14-21.14,21.14s-21.14-9.48-21.14-21.14c0-3.7.97-7.33,2.8-10.52l-1.15-.66,1.15.65L51.75,5.43h-3.08l-25.48,45.02ZM18.2,47.57c-2.57,4.47-3.93,9.57-3.93,14.76,0,16.35,13.3,29.65,29.65,29.65s29.65-13.3,29.65-29.65c0-6.45-2.04-12.59-5.89-17.74-3.73-4.98-9.03-8.74-14.94-10.58l-.8,2.56c5.37,1.67,10.2,5.09,13.59,9.62,3.5,4.69,5.36,10.26,5.36,16.13,0,14.87-12.1,26.96-26.96,26.96s-26.96-12.1-26.96-26.96c0-4.72,1.23-9.36,3.57-13.42l-1.07-.62,1.07.62L45.47,5.43h-3.09l-24.18,42.13h0Z"/>
    <path class="cls-2" d="M39.94,60.98s-.02.06-.02.09l-.04.14c-.18.52-.23,1.16-.13,1.91.15.73.4,1.32.73,1.76.39.55.93,1.01,1.5,1.3.65.32,1.27.49,1.85.47.68,0,1.34-.14,1.92-.41.52-.24,1.01-.64,1.44-1.16.75-.93,1.08-2.14.89-3.34-.18-1.07-.75-2.01-1.6-2.64-.4-.3-.81-.52-1.28-.69-.33-.1-.76-.17-1.26-.19-1.28-.05-3.13.67-3.99,2.76M50.69,42.16l-1.6,2.79c2.1.62,4.11,1.64,5.89,2.99,1.81,1.38,3.31,3.02,4.46,4.89,1.24,2.01,2.1,4.3,2.49,6.63.4,2.46.29,5.05-.33,7.46-.64,2.53-1.85,4.94-3.5,6.97-1.73,2.14-3.92,3.87-6.32,5.01-2.45,1.16-5.19,1.77-7.93,1.77h-.12c-5.69-.02-11.27-2.9-14.57-7.51-1.62-2.18-2.76-4.88-3.26-7.78-.44-2.91-.24-5.8.59-8.39.63-2.2,1.82-4.19,2.97-6.11.29-.48.57-.96.85-1.43L55.33,5.43h2.99l-25.75,45.31c-.28.49-.58.98-.87,1.47-1.07,1.78-2.17,3.62-2.72,5.54-.72,2.24-.9,4.73-.52,7.21.43,2.47,1.4,4.78,2.79,6.66,2.84,3.97,7.62,6.44,12.48,6.45,2.4,0,4.79-.51,6.93-1.52,2.05-.97,3.92-2.45,5.41-4.29,1.41-1.74,2.45-3.81,3-5.98.53-2.08.63-4.29.28-6.4-.33-2-1.07-3.97-2.13-5.69-.99-1.6-2.27-3.01-3.83-4.19-1.7-1.29-3.63-2.23-5.65-2.74l-1.64,2.85c.56.1,1.13.23,1.68.4,1.36.46,2.6,1.12,3.71,1.96,2.52,1.87,4.26,4.76,4.78,7.91.58,3.47-.4,7.18-2.63,9.91-1.2,1.48-2.7,2.67-4.33,3.44-1.69.8-3.58,1.21-5.47,1.21h-.06c-3.91-.02-7.74-2-10.01-5.17-1.09-1.45-1.87-3.3-2.23-5.32-.3-2.05-.16-4.04.41-5.78.36-1.27,1.02-2.41,1.66-3.51l6.31-10.97L61.93,5.43h2.99l-29.05,51.06c-.58,1-1.13,1.95-1.42,2.96-.46,1.41-.57,2.99-.33,4.61.28,1.58.9,3.05,1.76,4.2,1.81,2.53,4.84,4.09,7.93,4.1,1.54.01,3.05-.33,4.41-.97,1.29-.61,2.47-1.55,3.43-2.73,1.77-2.17,2.55-5.1,2.09-7.85-.41-2.5-1.78-4.78-3.78-6.26-.9-.69-1.89-1.21-2.95-1.57-.72-.23-1.49-.38-2.26-.44l-1.82,3.16c.39-.06.76-.08,1.11-.07.74.03,1.39.14,1.99.32.77.27,1.43.63,2.02,1.07,1.38,1.02,2.31,2.55,2.61,4.29.31,1.93-.21,3.89-1.43,5.39-.68.84-1.47,1.47-2.36,1.88-.93.43-1.96.66-2.99.66-.03,0-.06,0-.09,0-.95,0-1.94-.25-2.94-.75-.95-.47-1.84-1.23-2.43-2.08-.55-.71-.97-1.68-1.2-2.83v-.09c-.16-1.13-.08-2.16.21-3.06.23-.94.74-1.76,1.2-2.49.13-.21.26-.42.38-.63L68.52,5.43h2.99l-19.51,34.44"/>
  </g>
</svg>